<svg xmlns="http://www.w3.org/2000/svg" width="47.7" height="47.7" viewBox="0 0 47.7 47.7" fill="#6b6b6b">
                  <g>
                      <path d="M24.3 20.2c-.4 0-.7-.3-.7-.7s.3-.7.7-.7c1.1 0 2-.9 2-2s-.9-2-2-2-2 .9-2 2c0 .4-.3.7-.7.7s-.7-.3-.7-.7c0-1.9 1.5-3.4 3.4-3.4s3.4 1.5 3.4 3.4-1.5 3.4-3.4 3.4z"/>
                      <path d="M36.5 29.8c-.1 0-.2 0-.4-.1l-12.3-7.2c-.2-.1-.4-.4-.4-.6v-2.1c0-.4.3-.7.7-.7.4 0 .7.3.7.7v1.7l12 7c.3.2.5.6.3 1-.1.2-.4.3-.6.3z"/>
                      <path d="M35.1 34.5H24.3c-.4 0-.7-.3-.7-.7s.3-.7.7-.7h10.8c2.7 0 2.7-1 2.7-1.5 0-.7-1.1-1.6-1.6-1.9-.3-.2-.5-.6-.3-1 .2-.3.6-.5 1-.3.2.1 2.4 1.4 2.4 3.1-.1 2-1.5 3-4.2 3zM12 29.8c-.2 0-.5-.1-.6-.3-.2-.3-.1-.8.2-1l9.1-5.4c.3-.2.8-.1 1 .2.2.3.1.8-.2 1l-9.1 5.4c-.2.1-.3.1-.4.1z"/>
                      <path d="M24.2 34.5H13.4c-2.7 0-4.1-1-4.1-2.9 0-1.8 2.1-3 2.4-3.1.3-.2.8-.1 1 .3.2.3.1.8-.3 1-.4.2-1.6 1.1-1.6 1.9 0 .6 0 1.5 2.7 1.5h10.8c.4 0 .7.3.7.7s-.4.6-.8.6z"/>
                  </g>
                  <path class="bdr" d="M43.1 47.8H4.7c-2.6 0-4.7-2.1-4.7-4.7V4.7C0 2.1 2.1 0 4.7 0h38.4c2.6 0 4.7 2.1 4.7 4.7v38.4c0 2.6-2.1 4.7-4.7 4.7zM4.7 1C2.7 1 1 2.7 1 4.7v38.4c0 2 1.7 3.7 3.7 3.7h38.4c2 0 3.7-1.7 3.7-3.7V4.7c0-2-1.7-3.7-3.7-3.7H4.7z"/>
              </svg>